<?xml version="1.0" encoding="UTF-8" standalone="no"?>
<!-- Created with Inkscape (http://www.inkscape.org/) -->

<svg
   xmlns:dc="http://purl.org/dc/elements/1.1/"
   xmlns:cc="http://creativecommons.org/ns#"
   xmlns:rdf="http://www.w3.org/1999/02/22-rdf-syntax-ns#"
   xmlns:svg="http://www.w3.org/2000/svg"
   xmlns="http://www.w3.org/2000/svg"
   xmlns:sodipodi="http://sodipodi.sourceforge.net/DTD/sodipodi-0.dtd"
   xmlns:inkscape="http://www.inkscape.org/namespaces/inkscape"
   width="210mm"
   height="297mm"
   viewBox="0 0 744.09448819 1052.3622047"
   id="svg2"
   version="1.1"
   inkscape:version="0.91 r13725"
   sodipodi:docname="AIMarkerIcons.svg">
  <defs
     id="defs4" />
  <sodipodi:namedview
     id="base"
     pagecolor="#ffffff"
     bordercolor="#666666"
     borderopacity="1.0"
     inkscape:pageopacity="0.0"
     inkscape:pageshadow="2"
     inkscape:zoom="3.959798"
     inkscape:cx="439.96449"
     inkscape:cy="986.3129"
     inkscape:document-units="px"
     inkscape:current-layer="layer1"
     showgrid="false"
     inkscape:window-width="1280"
     inkscape:window-height="1005"
     inkscape:window-x="1916"
     inkscape:window-y="-4"
     inkscape:window-maximized="1" />
  <metadata
     id="metadata7">
    <rdf:RDF>
      <cc:Work
         rdf:about="">
        <dc:format>image/svg+xml</dc:format>
        <dc:type
           rdf:resource="http://purl.org/dc/dcmitype/StillImage" />
        <dc:title></dc:title>
      </cc:Work>
    </rdf:RDF>
  </metadata>
  <g
     inkscape:label="Layer 1"
     inkscape:groupmode="layer"
     id="layer1">
    <path
       style="fill:#8dffff;fill-opacity:1;fill-rule:evenodd;stroke:#000000;stroke-width:1px;stroke-linecap:butt;stroke-linejoin:miter;stroke-opacity:1"
       d="m 20.422135,38.076489 23.863579,-0.232732 10.475981,-12.267267 2.39961,-8.955471 0,10.741185 -0.93398,3.485662 -4.37405,7.025699 27.003859,0 -2.86328,5.092262 -26.222864,0 -7.701411,7.133196 -5.420647,0 3.54902,-7.147688 -23.525497,0 z"
       id="path3336"
       inkscape:connector-curvature="0"
       sodipodi:nodetypes="ccccccccccccccc"
       inkscape:export-xdpi="44.858273"
       inkscape:export-ydpi="44.858273" />
    <path
       style="fill:#8dffff;fill-opacity:1;fill-rule:evenodd;stroke:#000000;stroke-width:1px;stroke-linecap:butt;stroke-linejoin:miter;stroke-opacity:1"
       d="m 111.85714,20.362204 37,0 c 0,0 1.16859,24.229514 -17.85714,37 -21.79622,-14.199057 -19.14286,-37 -19.14286,-37 z"
       id="path3338"
       inkscape:connector-curvature="0"
       sodipodi:nodetypes="cccc"
       inkscape:export-xdpi="47.244804"
       inkscape:export-ydpi="47.244804" />
    <path
       style="fill:#8dffff;fill-rule:evenodd;stroke:#000000;stroke-width:1px;stroke-linecap:butt;stroke-linejoin:miter;stroke-opacity:1;fill-opacity:1"
       d="m 173.57142,22.362204 31.42858,0 0,32.857142 -32.85715,0 0,-32.857142 z"
       id="path3340"
       inkscape:connector-curvature="0"
       inkscape:export-xdpi="47.244804"
       inkscape:export-ydpi="47.244804" />
    <path
       style="fill:#8dffff;fill-opacity:1;fill-rule:evenodd;stroke:#000000;stroke-width:1px;stroke-linecap:butt;stroke-linejoin:miter;stroke-opacity:1"
       d="m 186.29115,38.790775 32.85714,0 -9.64286,-9.642857 22.06124,12.737062 -21.5163,12.422446 8.37871,-8.378717 -32.13793,0 z"
       id="path3342"
       inkscape:connector-curvature="0"
       inkscape:export-xdpi="47.244804"
       inkscape:export-ydpi="47.244804" />
    <path
       style="fill:#8dffff;fill-opacity:1;fill-rule:evenodd;stroke:#000000;stroke-width:1px;stroke-linecap:butt;stroke-linejoin:miter;stroke-opacity:1"
       d="m 260.71428,48.076489 1.89404,-30.714285 6.08445,28.260866 6.57771,-28.688064 1.51523,28.998626 6.02104,-29.06822 1.76777,31.171466 z"
       id="path3344"
       inkscape:connector-curvature="0"
       sodipodi:nodetypes="cccccccc"
       inkscape:export-xdpi="57.78212"
       inkscape:export-ydpi="57.78212" />
    <path
       style="fill:#8dffff;fill-opacity:1;fill-rule:evenodd;stroke:#000000;stroke-width:1px;stroke-linecap:butt;stroke-linejoin:miter;stroke-opacity:1"
       d="m 396.42856,56.647918 c 0,0 65.71429,-15.714286 35.71429,-16.428571 -30,-0.714286 24.28571,-7.142858 24.28571,-7.142858 l -2.85714,-5.714285 c 0,0 -16.42857,-1.428572 -41.42857,10.714285 -25,12.142858 32.85714,2.142858 11.42857,6.428572 -21.42857,4.285714 -30.71429,6.428571 -30.71429,6.428571 z"
       id="path3346"
       inkscape:connector-curvature="0"
       sodipodi:nodetypes="csccsscc"
       inkscape:export-xdpi="41.439098"
       inkscape:export-ydpi="41.439098" />
    <path
       style="fill:#8dffff;fill-opacity:1;fill-rule:evenodd;stroke:#000000;stroke-width:1px;stroke-linecap:butt;stroke-linejoin:miter;stroke-opacity:1"
       d="m 336.68456,16.109311 0,12 -8.71153,-2.334249 10.88003,10.880036 11.76008,-11.760072 -9.44334,2.530334 0,-11.316049 z"
       id="path3350"
       inkscape:connector-curvature="0"
       sodipodi:nodetypes="cccccccc"
       inkscape:export-xdpi="51.975353"
       inkscape:export-ydpi="51.975353" />
    <path
       style="fill:#8dffff;fill-opacity:1;fill-rule:evenodd;stroke:#000000;stroke-width:1px;stroke-linecap:butt;stroke-linejoin:miter;stroke-opacity:1"
       d="m 341.60161,61.862205 0,-12.000003 8.71153,2.334249 -10.88003,-10.880038 -11.76008,11.760074 9.44334,-2.530334 0,11.316052 z"
       id="path3350-7"
       inkscape:connector-curvature="0"
       sodipodi:nodetypes="cccccccc"
       inkscape:export-xdpi="51.975353"
       inkscape:export-ydpi="51.975353" />
    <path
       style="fill:#8dffff;fill-opacity:1;fill-rule:evenodd;stroke:#000000;stroke-width:1px;stroke-linecap:butt;stroke-linejoin:miter;stroke-opacity:1"
       d="m 316.5,41.977639 12,0 -2.33425,8.711534 10.88004,-10.880034 -11.76008,-11.76008 2.53034,9.44334 -11.31605,0 z"
       id="path3350-1"
       inkscape:connector-curvature="0"
       sodipodi:nodetypes="cccccccc"
       inkscape:export-xdpi="51.975353"
       inkscape:export-ydpi="51.975353" />
    <path
       style="fill:#8dffff;fill-opacity:1;fill-rule:evenodd;stroke:#000000;stroke-width:1px;stroke-linecap:butt;stroke-linejoin:miter;stroke-opacity:1"
       d="m 362.25289,36.560594 -11.99999,0 2.33425,-8.71153 -10.88004,10.88003 11.76008,11.760077 -2.53034,-9.443337 11.31604,0 z"
       id="path3350-6"
       inkscape:connector-curvature="0"
       sodipodi:nodetypes="cccccccc"
       inkscape:export-xdpi="51.975353"
       inkscape:export-ydpi="51.975353" />
    <path
       style="fill:#8dffff;fill-opacity:1;stroke:#000000;stroke-width:0.96774197;stroke-opacity:1"
       d="m 507.51613,35.719348 c 0,8.017037 -4.49909,12.51613 -12.51613,12.516129 -8.01704,10e-7 -12.51613,-4.499092 -12.51613,-12.516129 0,-8.017037 4.49909,-12.51613 12.51613,-12.516129 8.01704,-1e-6 12.51613,4.499092 12.51613,12.516129 z"
       id="path3379"
       inkscape:connector-curvature="0"
       sodipodi:nodetypes="sssss"
       inkscape:export-xdpi="49.185238"
       inkscape:export-ydpi="49.185238" />
    <path
       style="fill:#8dffff;fill-rule:evenodd;stroke:#000000;stroke-width:1px;stroke-linecap:butt;stroke-linejoin:miter;stroke-opacity:1;fill-opacity:1"
       d="m 479.7927,24.395074 c -3.68841,9.008627 -7.45843,9.990046 0,22.714286"
       id="path4182"
       inkscape:connector-curvature="0"
       sodipodi:nodetypes="cc"
       inkscape:export-xdpi="49.185238"
       inkscape:export-ydpi="49.185238" />
    <path
       style="fill:#8dffff;fill-rule:evenodd;stroke:#000000;stroke-width:1px;stroke-linecap:butt;stroke-linejoin:miter;stroke-opacity:1;fill-opacity:1"
       d="m 510.46272,47.172754 c 3.68841,-9.008627 7.45843,-9.990046 0,-22.714286"
       id="path4182-7"
       inkscape:connector-curvature="0"
       sodipodi:nodetypes="cc"
       inkscape:export-xdpi="49.185238"
       inkscape:export-ydpi="49.185238" />
    <path
       style="fill:#8dffff;fill-rule:evenodd;stroke:#000000;stroke-width:1px;stroke-linecap:butt;stroke-linejoin:miter;stroke-opacity:1;fill-opacity:1"
       d="m 506.96713,20.399204 c -9.00863,-3.68841 -9.99005,-7.45843 -22.71429,0"
       id="path4182-2"
       inkscape:connector-curvature="0"
       sodipodi:nodetypes="cc"
       inkscape:export-xdpi="49.185238"
       inkscape:export-ydpi="49.185238" />
    <path
       style="fill:#8dffff;fill-rule:evenodd;stroke:#000000;stroke-width:1px;stroke-linecap:butt;stroke-linejoin:miter;stroke-opacity:1;fill-opacity:1"
       d="m 484.18945,51.069224 c 9.00863,3.68841 9.99005,7.45843 22.71429,0"
       id="path4182-7-9"
       inkscape:connector-curvature="0"
       sodipodi:nodetypes="cc"
       inkscape:export-xdpi="49.185238"
       inkscape:export-ydpi="49.185238" />
  </g>
</svg>
